<?xml version="1.0" encoding="UTF-8"?>
<svg id="Layer_2" data-name="Layer 2" xmlns="http://www.w3.org/2000/svg" viewBox="0 0 371.08 496.22">
  <defs>
    <style>
      .cls-1 {
        fill: #000;
      }

      .cls-1, .cls-2, .cls-3, .cls-4, .cls-5, .cls-6, .cls-7 {
        stroke-width: 0px;
      }

      .cls-2 {
        fill: #d2eff7;
      }

      .cls-8, .cls-9, .cls-10, .cls-11, .cls-12, .cls-13 {
        stroke: #000;
      }

      .cls-8, .cls-9, .cls-14, .cls-13 {
        stroke-miterlimit: 10;
      }

      .cls-8, .cls-10, .cls-12, .cls-14, .cls-13 {
        fill: none;
      }

      .cls-9, .cls-11, .cls-12, .cls-13 {
        stroke-width: 10px;
      }

      .cls-9, .cls-4, .cls-5 {
        fill: #e3f8ff;
      }

      .cls-3, .cls-6 {
        fill: #87ceeb;
      }

      .cls-10, .cls-11, .cls-12 {
        stroke-linejoin: round;
      }

      .cls-11, .cls-7 {
        fill: #fff;
      }

      .cls-4, .cls-6 {
        opacity: .5;
      }

      .cls-14 {
        stroke: #c1c1c1;
        stroke-width: 20px;
      }
    </style>
  </defs>
  <g id="OutlineHighlights">
    <path class="cls-14" d="M93.35,280.78l-22.8-42.82-3.86-15.45-12.88-56.67,4.03-6.44,4.66-29.94,6.12-27.69c8.27-16.26,21.8-37.34,43.47-56.34,8.42-7.39,22.07-19.15,43.47-27.69,10.78-4.3,20.35-6.51,27.37-7.73h2.62c7.02,1.21,16.58,3.42,27.37,7.73,21.4,8.54,35.05,20.3,43.47,27.69,21.67,19.01,35.19,40.09,43.47,56.34l6.12,27.69,4.66,29.94,4.03,6.44-12.88,56.67-3.86,15.45-22.8,42.82"/>
    <path id="Outline" class="cls-14" d="M187.72,259.41l91.37,23.46,81,31.28c-1.79,13.02-5.86,31.8-16.2,51.95-16.85,32.86-40.81,50.82-69.83,72.07-19.55,14.31-48.27,32.58-86.35,48.04h-4.36c-38.07-15.47-66.79-33.73-86.35-48.04-29.02-21.24-52.98-39.2-69.83-72.07-10.34-20.16-14.42-38.93-16.2-51.95l81-31.28,91.37-23.46h4.36Z"/>
  </g>
  <g id="Fill_Layer" data-name="Fill Layer">
    <path class="cls-5" d="M91.99,282.87l-81,31.28c1.79,13.02,5.86,31.8,16.2,51.95,16.85,32.86,40.81,50.82,69.83,72.07,19.55,14.31,48.27,32.58,86.35,48.04h4.36c6.27-23.46,11.77-52.29,13.41-85.43,2.93-59.08-7.55-108.01-17.77-141.38-30.46,7.82-60.92,15.64-91.37,23.46Z"/>
    <path class="cls-3" d="M277.46,286.44l-91.37-23.46h-4.36c-1.24,30.32-.4,53.9.66,70.13.67,10.19,1.39,17.01,3.27,25.26,5.51,24.23,12.94,25.47,15.15,40.51.27,1.82.56,4.85.01,8.71-1.93,13.6-11.95,16.87-15.39,29.91-.65,2.48,0,2.07.11,12.11.12,9.76-.36,24.57,0,40.19,38.07-15.47,67.34-33.73,86.89-48.04,29.02-21.24,52.98-39.2,69.83-72.07,10.34-20.16,14.42-38.93,16.2-51.95l-81-31.28Z"/>
    <polygon id="Fill_Layer-2" data-name="Fill Layer" class="cls-10" points="59.96 325.77 57.84 303.61 57.84 296.06 14.71 312.1 10.98 314.45 14.24 335.43 22.25 357.82 39.22 386.1 56.66 406.14 89.66 433.01 144.34 467.89 177.34 484.39 185.54 487.22 214.11 475.67 272.09 439.61 299.43 418.16 329.36 387.52 346.1 361.12 358.12 330.72 360.1 311.86 314.28 296.06 311.92 311.86 308.15 335.9 298.72 352.4 274.44 382.33 244.98 405.67 197.84 434.66 186.77 441.96 172.15 435.6 143.4 417.69 117.94 402.37 98.38 384.69 79.05 361.12 62.32 339.44 59.96 325.77"/>
    <polyline id="Outline-2" data-name="Outline" class="cls-12" points="187.72 443.96 185.54 442.75 150.89 421.91 122.3 404.46 99.28 386.05 77.95 359.39 62.69 338.31 59.05 318.92 57.84 299.05"/>
    <polyline id="Outline-3" data-name="Outline" class="cls-12" points="313.03 299.05 311.82 318.92 308.18 338.31 292.91 359.39 271.59 386.05 248.57 404.46 219.98 421.91 185.33 442.75 183.15 443.96"/>
    <path class="cls-2" d="M171.97,324.43c-3.63-3.48-4.23-3.28-22.75-14.73-24.16-14.94-24.8-16.32-32.4-19.31-7.42-2.92-19.93-7.84-22.98-3.94-4.15,5.31,11.64,24.04,21.39,34.75,5.3,5.83,17.34,18.79,36.09,26.06,0,0,8.09,1.83,33.29,5.72l-2.9-21.36c-3.79-.49-5.68-3.29-9.75-7.2Z"/>
    <path class="cls-3" d="M277.4,286.07c-3.11-3.49-14.33,1.86-34.06,11.27-22.64,10.79-33.96,16.19-40.91,23.07-6.49,6.43-14.69,16.68-21.33,15.82l3.92,18.74c.55.08,1.1.17,1.67.26.5.08.98.02.98.02.09,0,.12-.03.98-.06,32.89-1.03,59.18-22.56,76.47-41.71,15.17-21.08,13.55-25.96,12.27-27.4Z"/>
    <path id="Outline-4" data-name="Outline" class="cls-12" d="M187.72,259.41l91.37,23.46,81,31.28c-1.79,13.02-5.86,31.8-16.2,51.95-16.85,32.86-40.81,50.82-69.83,72.07-19.55,14.31-48.27,32.58-86.35,48.04h-4.36c-38.07-15.47-66.79-33.73-86.35-48.04-29.02-21.24-52.98-39.2-69.83-72.07-10.34-20.16-14.42-38.93-16.2-51.95l81-31.28,91.37-23.46h4.36Z"/>
    <path class="cls-5" d="M156.85,17.73c-21.4,8.54-35.05,20.3-43.47,27.69-21.67,19.01-35.19,40.09-43.47,56.34l-6.12,27.69-4.66,29.94-4.03,6.44,12.88,56.67,3.86,15.45,22.8,42.82h90.72l-1.15-270.78c-7.02,1.21-16.58,3.42-27.37,7.73Z"/>
    <path class="cls-3" d="M311.62,159.39l-4.66-29.94-6.12-27.69c-8.27-16.26-21.8-37.34-43.47-56.34-8.42-7.39-22.07-19.15-43.47-27.69-10.78-4.3-20.35-6.51-27.37-7.73h-2.62c-.6,53.39-.09,107.92.31,162.87.27,36.43.14,72.17.84,107.91h91.04l22.8-42.82,3.86-15.45,12.88-56.67-4.03-6.44Z"/>
    <path class="cls-5" d="M182.7,177.8c-.1-.04-.21-.07-.31-.11l-38.35,9.5-48.83-.54-14.24-2.92c-2.25-.57-4.46-1.17-6.62-1.81-4.76-1.41-9.28-2.98-13.58-4.67l-5.82-4.38,17.13,67.95,21.28,41.71,12.95,4.96,75.42,36.95c3.98-48.88-1.97-97.75.98-146.63Z"/>
    <path class="cls-3" d="M307.69,177.24c-6.25,2.45-12.98,4.66-20.2,6.48-42.51,10.69-80.64,2.29-104.79-5.93-2.95,48.88,3.01,97.75-.98,146.63l.23.11,51.36-23.01,42.8-20.75,16.86-31.66,11.13-32.44,10.01-42.95-6.41,3.51Z"/>
    <polyline id="Outline-5" data-name="Outline" class="cls-12" points="95.21 282.04 182.39 324.75 275.87 282.04"/>
    <line class="cls-12" x1="184.05" y1="178.37" x2="182.39" y2="324.75"/>
    <path class="cls-12" d="M113.33,291.27c8.82,3.32,18.61,10.65,28.89,16.34,16.8,9.31,30.04,19.52,40.17,28.62,9.53-8.53,22.1-18.14,38-26.7,8.55-4.6,16.71-10.18,24.18-12.97"/>
    <polyline class="cls-4" points="192.9 306.08 265.76 274.72 280.8 248.64 288.43 238.05"/>
    <path class="cls-6" d="M176.67,197.66c-.54-2.98-14.64-4.72-76.39,1.28l-28.86-5.7c.07,6.81,1.21,20.06,10.31,26.69,5.94,4.33,14.06,4.93,44.46-3.64,25.51-7.2,51.23-14.46,50.48-18.63Z"/>
    <line class="cls-9" x1="185.54" y1="445.5" x2="185.54" y2="483.29"/>
    <polygon class="cls-1" points="168.33 285.88 146.54 282.56 146.54 201.1 168.33 198.94 168.33 285.88"/>
    <polygon class="cls-7" points="169.07 281.76 151.91 277.47 151.12 205.03 168.81 202.19 169.07 281.76"/>
    <polygon class="cls-1" points="134.46 274.82 117.31 272.13 117.31 206.15 134.46 204.41 134.46 274.82"/>
    <polygon class="cls-7" points="135.05 271.49 121.54 268.01 120.91 209.34 134.84 207.04 135.05 271.49"/>
    <polygon class="cls-1" points="107.47 267.16 95.7 265.06 95.7 213.43 107.47 212.07 107.47 267.16"/>
    <polygon class="cls-7" points="107.87 264.55 98.6 261.83 98.17 215.93 107.73 214.13 107.87 264.55"/>
    <polygon class="cls-1" points="202.37 285.88 224.17 282.56 224.17 201.1 202.37 198.94 202.37 285.88"/>
    <polygon class="cls-7" points="201.63 281.76 218.79 277.47 219.58 205.03 201.9 202.19 201.63 281.76"/>
    <polygon class="cls-1" points="236.24 274.82 253.4 272.13 253.4 206.15 236.24 204.41 236.24 274.82"/>
    <polygon class="cls-7" points="235.66 271.49 249.16 268.01 249.79 209.34 235.87 207.04 235.66 271.49"/>
    <polygon class="cls-1" points="264.51 266.97 273.64 264.88 273.64 213.61 264.51 212.26 264.51 266.97"/>
    <polygon class="cls-7" points="264.2 264.38 271.39 261.68 271.72 216.09 264.31 214.3 264.2 264.38"/>
    <polygon class="cls-1" points="183.45 133.87 184.39 133.83 184.61 134.83 183.93 135.91 183.01 134.43 183.45 133.87"/>
    <rect class="cls-11" x="183.65" y="13.68" width="0" height="88.37"/>
    <line class="cls-11" x1="183.4" y1="241.85" x2="183.4" y2="92.46"/>
    <path class="cls-11" d="M161.94,147.78c-11.21-2.22-25.2-4.04-41.31-4.02-15.86.02-29.65,1.82-40.74,4.02v-23.07c12.21-1.65,26.29-2.8,41.88-2.75,14.9.04,28.39,1.16,40.16,2.75v23.07Z"/>
    <path class="cls-11" d="M285.84,150.23c-11.21-2.22-25.2-4.04-41.31-4.02-15.86.02-29.65,1.82-40.74,4.02v-23.07c12.21-1.65,26.29-2.71,41.88-2.75,14.9-.04,28.39,1.16,40.16,2.75v23.07Z"/>
    <path class="cls-3" d="M93.39,81.3c5.28-8.46,14.03-20.3,27.63-31.48,23.27-19.13,35.83-21.9,39.65-22.27,3.79-.36,6.98-.19,9.18.03"/>
    <path class="cls-5" d="M244.82,177.69c7.71,2.06,24.71-2.45,28.94-2.05,7.05.67,23.3,1.08,26.97-9.18.97-2.72,2.05-6.33.57-7.46-2.46-1.88-10.28,4.19-16.64,9.75"/>
  </g>
  <g id="Base">
    <polygon id="Fill_Layer-3" data-name="Fill Layer" class="cls-8" points="59.96 325.77 57.84 303.61 57.84 296.06 14.71 312.1 10.98 314.45 14.24 335.43 22.25 357.82 39.22 386.1 56.66 406.14 89.66 433.01 144.34 467.89 177.34 484.39 185.54 487.22 214.11 475.67 272.09 439.61 299.43 418.16 329.36 387.52 346.1 361.12 358.12 330.72 360.1 311.86 314.28 296.06 311.92 311.86 308.15 335.9 298.72 352.4 274.44 382.33 244.98 405.67 197.84 434.66 186.77 441.96 172.15 435.6 143.4 417.69 117.94 402.37 98.38 384.69 79.05 361.12 62.32 339.44 59.96 325.77"/>
    <polyline id="Outline-6" data-name="Outline" class="cls-13" points="187.72 443.96 185.54 442.75 150.89 421.91 122.3 404.46 99.28 386.05 77.95 359.39 62.69 338.31 59.05 318.92 57.84 299.05"/>
    <polyline id="Outline-7" data-name="Outline" class="cls-13" points="183.15 443.96 185.33 442.75 219.98 421.91 248.57 404.46 271.59 386.05 292.91 359.39 308.18 338.31 311.82 318.92 313.03 299.05"/>
  </g>
  <g id="Neck">
    <path id="Outline-8" data-name="Outline" class="cls-12" d="M184.86,353.7c-1.66.05-1.16,0-2.77-.06-32.89-1.03-59.18-22.56-76.47-41.71-4.09-9.13-8.18-18.27-12.27-27.4"/>
    <path id="Outline-9" data-name="Outline" class="cls-12" d="M274.76,284.53c-4.09,9.13-8.18,18.27-12.27,27.4-17.29,19.16-43.59,40.68-76.47,41.71-1.61.05-.3.09-1.96.04"/>
  </g>
  <g id="Head">
    <path class="cls-12" d="M93.35,280.78l-22.8-42.82-3.86-15.45-12.88-56.67,4.03-6.44,4.66-29.94,6.12-27.69c8.27-16.26,21.8-37.34,43.47-56.34,8.42-7.39,22.07-19.15,43.47-27.69,10.78-4.3,20.35-6.51,27.37-7.73h2.62c7.02,1.21,16.58,3.42,27.37,7.73,21.4,8.54,35.05,20.3,43.47,27.69,21.67,19.01,35.19,40.09,43.47,56.34l6.12,27.69,4.66,29.94,4.03,6.44-12.88,56.67-3.86,15.45-22.8,42.82"/>
    <line class="cls-12" x1="97.52" y1="283.18" x2="91.56" y2="280.33"/>
  </g>
  <g id="Visor">
    <path id="Outline-10" data-name="Outline" class="cls-12" d="M186.07,177.69c-24.14,8.25-62.41,16.77-105.1,6.03-7.22-1.82-13.95-4.03-20.2-6.48l-5.82-4.38"/>
    <path id="Outline-11" data-name="Outline" class="cls-12" d="M182.39,177.69c24.14,8.25,62.41,16.77,105.1,6.03,7.22-1.82,13.95-4.03,20.2-6.48l6.41-3.51"/>
    <polyline id="Outline-12" data-name="Outline" class="cls-12" points="95.21 282.04 182.39 324.75 275.87 282.04"/>
  </g>
</svg>